<svg width="40" height="40" viewBox="0 0 40 40" xmlns="http://www.w3.org/2000/svg" aria-label="HashNotes logo" role="img">
  <defs>
    <linearGradient id="gradFill" x1="0" y1="0" x2="1" y2="1">
      <stop offset="0%" stop-color="#0ea5e9"/>
      <stop offset="100%" stop-color="#7c3aed"/>
    </linearGradient>
    <linearGradient id="gradAccent" x1="0" y1="0" x2="1" y2="0">
      <stop offset="0%" stop-color="#22d3ee"/>
      <stop offset="100%" stop-color="#a78bfa"/>
    </linearGradient>
    <filter id="shadow" x="-20%" y="-20%" width="140%" height="140%">
      <feDropShadow dx="0" dy="1.5" stdDeviation="1" flood-color="#000000" flood-opacity="0.25"/>
    </filter>
  </defs>

  <rect x="2" y="2" width="36" height="36" rx="10" fill="url(#gradFill)"/>

  <g fill="none" stroke="url(#gradAccent)" opacity="0.35" stroke-width="1.4">
    <path d="M20 10 L28.66 15 L28.66 25 L20 30 L11.34 25 L11.34 15 Z"/>
  </g>
  <g fill="#ffffff" opacity="0.8">
    <circle cx="20" cy="10" r="1.6"/>
    <circle cx="28.66" cy="15" r="1.6"/>
    <circle cx="28.66" cy="25" r="1.6"/>
    <circle cx="20" cy="30" r="1.6"/>
    <circle cx="11.34" cy="25" r="1.6"/>
    <circle cx="11.34" cy="15" r="1.6"/>
  </g>

  <g fill="none" stroke="url(#gradAccent)" stroke-width="3" stroke-linecap="round" filter="url(#shadow)">
    <path d="M15 12 V28"/>
    <path d="M25 12 V28"/>
    <path d="M11 16 H29"/>
    <path d="M11 24 H29"/>
  </g>

  <title>HashNotes — Web3 IPFS Notes</title>
</svg>